<svg xmlns="http://www.w3.org/2000/svg" aria-hidden="true" style="position:absolute;width:0;height:0;overflow:hidden"><defs><symbol id="down" viewBox="0 0 48 32"><path fill="none" stroke="#fff" stroke-linecap="round" stroke-linejoin="round" stroke-width="8" d="m4.004 6.006 20.02 20.02 20.02-20.02" style="stroke:var(--color1, #fff)"/></symbol><symbol id="hart" viewBox="0 0 36 32"><path stroke-linecap="round" stroke-linejoin="round" stroke-width="3" d="M31.27 4.916c-1.494-1.494-3.557-2.418-5.837-2.418s-4.343.924-5.837 2.418l-1.591 1.591-1.59-1.591A8.255 8.255 0 0 0 4.741 16.59v-.001l13.264 13.264 13.264-13.264c1.494-1.494 2.419-3.557 2.419-5.837s-.924-4.343-2.418-5.837z"/></symbol><symbol id="hartActive" viewBox="0 0 36 32"><path fill="#3470ff" stroke="#3470ff" stroke-linecap="round" stroke-linejoin="round" stroke-width="2" d="M31.27 4.916c-1.494-1.494-3.557-2.418-5.837-2.418s-4.343.924-5.837 2.418l-1.591 1.591-1.59-1.591A8.255 8.255 0 0 0 4.741 16.59v-.001l13.264 13.264 13.264-13.264c1.494-1.494 2.419-3.557 2.419-5.837s-.924-4.343-2.418-5.837h0z" style="fill:var(--color2, #3470ff);stroke:var(--color2, #3470ff)"/></symbol></defs></svg>